<svg width="24" height="24" viewBox="0 0 24 24" fill="none" xmlns="http://www.w3.org/2000/svg">
    <path d="M11.7495 21.9999C12.4125 21.9999 13.0484 21.7365 13.5172 21.2677C13.986 20.7989 14.2494 20.163 14.2494 19.5H9.24966C9.24966 20.163 9.51304 20.7989 9.98185 21.2677C10.4507 21.7365 11.0865 21.9999 11.7495 21.9999ZM12.9932 3.37465C13.0106 3.20085 12.9915 3.02532 12.9369 2.85939C12.8824 2.69346 12.7936 2.5408 12.6764 2.41127C12.5593 2.28174 12.4162 2.17821 12.2566 2.10735C12.0969 2.03649 11.9242 1.99988 11.7495 1.99988C11.5748 1.99988 11.4021 2.03649 11.2425 2.10735C11.0828 2.17821 10.9398 2.28174 10.8226 2.41127C10.7054 2.5408 10.6167 2.69346 10.5621 2.85939C10.5076 3.02532 10.4884 3.20085 10.5058 3.37465C9.09306 3.66201 7.82301 4.42879 6.91074 5.54515C5.99847 6.66152 5.50005 8.05886 5.49986 9.50056C5.49986 10.873 4.8749 17.0001 3 18.2501H20.499C18.6241 17.0001 17.9992 10.873 17.9992 9.50056C17.9992 6.47573 15.8493 3.95086 12.9932 3.37465Z"
          fill="#676A6C"/>
    <path d="M11.7495 21.9999C12.4125 21.9999 13.0484 21.7365 13.5172 21.2677C13.986 20.7989 14.2494 20.163 14.2494 19.5H9.24966C9.24966 20.163 9.51304 20.7989 9.98185 21.2677C10.4507 21.7365 11.0865 21.9999 11.7495 21.9999ZM12.9932 3.37465C13.0106 3.20085 12.9915 3.02532 12.9369 2.85939C12.8824 2.69346 12.7936 2.5408 12.6764 2.41127C12.5593 2.28174 12.4162 2.17821 12.2566 2.10735C12.0969 2.03649 11.9242 1.99988 11.7495 1.99988C11.5748 1.99988 11.4021 2.03649 11.2425 2.10735C11.0828 2.17821 10.9398 2.28174 10.8226 2.41127C10.7054 2.5408 10.6167 2.69346 10.5621 2.85939C10.5076 3.02532 10.4884 3.20085 10.5058 3.37465C9.09306 3.66201 7.82301 4.42879 6.91074 5.54515C5.99847 6.66152 5.50005 8.05886 5.49986 9.50056C5.49986 10.873 4.8749 17.0001 3 18.2501H20.499C18.6241 17.0001 17.9992 10.873 17.9992 9.50056C17.9992 6.47573 15.8493 3.95086 12.9932 3.37465Z"
          fill="black" fill-opacity="0.2"/>
</svg>
