<svg width="703" height="269" viewBox="0 0 703 269" fill="none" xmlns="http://www.w3.org/2000/svg">
<path opacity="0.2" d="M625.527 199.95H592.98H577.246C565.175 199.95 555.26 190.024 555.26 177.94C555.26 165.856 565.175 155.93 577.246 155.93H592.98H668.708C680.778 155.93 690.693 146.003 690.693 133.919C690.693 121.835 680.778 111.909 668.708 111.909H599.734C611.804 111.909 621.719 101.983 621.719 89.8984C621.719 77.8143 611.804 67.888 599.734 67.888H405.386C417.456 67.888 427.371 57.9618 427.371 45.8776C427.371 33.7935 417.456 23.8672 405.386 23.8672H237.19C225.12 23.8672 215.205 33.7935 215.205 45.8776C215.205 57.9618 225.12 67.888 237.19 67.888H64.2528C52.1824 67.888 42.2674 77.8143 42.2674 89.8984C42.2674 101.983 52.1824 111.909 64.2528 111.909H154.494H159.02C171.09 111.909 181.005 121.835 181.005 133.919C181.005 146.003 171.09 155.93 159.02 155.93H154.494H22.2937C10.2233 155.93 0.308289 165.856 0.308289 177.94C0.308289 190.024 10.2233 199.95 22.2937 199.95H147.021C134.951 199.95 125.036 209.877 125.036 221.961C125.036 234.045 134.951 243.971 147.021 243.971H625.455C637.526 243.971 647.441 234.045 647.441 221.961C647.513 209.877 637.598 199.95 625.527 199.95Z" fill="#33B0D0"/>
<path opacity="0.2" d="M680.706 244.833C692.849 244.833 702.692 234.979 702.692 222.823C702.692 210.667 692.849 200.812 680.706 200.812C668.564 200.812 658.721 210.667 658.721 222.823C658.721 234.979 668.564 244.833 680.706 244.833Z" fill="#33B0D0"/>
<path d="M168.011 11.9844C168.011 5.90923 172.935 0.984375 179.011 0.984375H523.538C529.613 0.984375 534.538 5.90924 534.538 11.9844V250.751H168.011V11.9844Z" fill="#52C2DF"/>
<rect x="125.367" y="241.617" width="452.829" height="26.3981" rx="13" fill="#33B0D0"/>
<rect x="179.179" y="12.1562" width="345.206" height="217.277" rx="7" fill="white"/>
<rect x="282.741" y="93.4062" width="10.1531" height="50.1507" rx="5" transform="rotate(-44.6515 282.741 93.4062)" fill="#33B0D0"/>
<rect width="10.1531" height="50.1507" rx="5" transform="matrix(0.711395 0.702792 0.702792 -0.711395 283.756 121.953)" fill="#33B0D0"/>
<rect x="365.996" y="93.4062" width="10.1531" height="50.1507" rx="5" transform="rotate(-44.6515 365.996 93.4062)" fill="#33B0D0"/>
<rect width="10.1531" height="50.1507" rx="5" transform="matrix(0.711395 0.702792 0.702792 -0.711395 367.011 121.953)" fill="#33B0D0"/>
<path d="M304.062 171.557C306.77 167.158 314.621 160.186 324.368 167.496C331.476 171.557 337.06 171.558 342.136 166.99C347.213 162.421 355.335 167.497 357.366 168.513C359.397 169.528 367.519 171.051 375.134 165.974C381.226 161.913 386.133 166.99 387.825 170.036" stroke="#33B0D0" stroke-width="7" stroke-linecap="round"/>
</svg>
