<svg width="13" height="12" viewBox="0 0 13 12" fill="none" xmlns="http://www.w3.org/2000/svg">
    <g clip-path="url(#clip0_821_10484)">
        <path d="M6.5 2.625C6.5 2.52554 6.46049 2.43016 6.39017 2.35984C6.31984 2.28951 6.22446 2.25 6.125 2.25C6.02554 2.25 5.93016 2.28951 5.85984 2.35984C5.78951 2.43016 5.75 2.52554 5.75 2.625V6.75C5.75002 6.8161 5.76751 6.88102 5.8007 6.93818C5.83389 6.99534 5.8816 7.04271 5.939 7.0755L8.564 8.5755C8.65014 8.62206 8.75108 8.63307 8.84524 8.60619C8.9394 8.57931 9.0193 8.51667 9.06789 8.43165C9.11647 8.34663 9.12987 8.24598 9.10522 8.15122C9.08058 8.05645 9.01984 7.97508 8.936 7.9245L6.5 6.5325V2.625Z"
              fill="#525253"/>
        <path d="M6.5 12C8.0913 12 9.61742 11.3679 10.7426 10.2426C11.8679 9.11742 12.5 7.5913 12.5 6C12.5 4.4087 11.8679 2.88258 10.7426 1.75736C9.61742 0.632141 8.0913 0 6.5 0C4.9087 0 3.38258 0.632141 2.25736 1.75736C1.13214 2.88258 0.5 4.4087 0.5 6C0.5 7.5913 1.13214 9.11742 2.25736 10.2426C3.38258 11.3679 4.9087 12 6.5 12ZM11.75 6C11.75 7.39239 11.1969 8.72774 10.2123 9.71231C9.22774 10.6969 7.89239 11.25 6.5 11.25C5.10761 11.25 3.77226 10.6969 2.78769 9.71231C1.80312 8.72774 1.25 7.39239 1.25 6C1.25 4.60761 1.80312 3.27226 2.78769 2.28769C3.77226 1.30312 5.10761 0.75 6.5 0.75C7.89239 0.75 9.22774 1.30312 10.2123 2.28769C11.1969 3.27226 11.75 4.60761 11.75 6Z"
              fill="#525253"/>
    </g>
    <defs>
        <clipPath id="clip0_821_10484">
            <rect width="12" height="12" fill="white" transform="translate(0.5)"/>
        </clipPath>
    </defs>
</svg>
