<svg width="12" height="12" viewBox="0 0 12 12" fill="none" xmlns="http://www.w3.org/2000/svg">
<path d="M0.96912 0.969364C1.03879 0.899519 1.12155 0.844104 1.21267 0.806295C1.30379 0.768485 1.40147 0.749023 1.50012 0.749023C1.59877 0.749023 1.69645 0.768485 1.78757 0.806295C1.87869 0.844104 1.96145 0.899519 2.03112 0.969364L6.00012 4.93986L9.96912 0.969364C10.0388 0.899632 10.1216 0.844317 10.2127 0.806579C10.3039 0.76884 10.4015 0.749416 10.5001 0.749416C10.5987 0.749416 10.6964 0.76884 10.7875 0.806579C10.8786 0.844317 10.9614 0.899632 11.0311 0.969364C11.1009 1.0391 11.1562 1.12188 11.1939 1.21299C11.2316 1.3041 11.2511 1.40175 11.2511 1.50036C11.2511 1.59898 11.2316 1.69663 11.1939 1.78774C11.1562 1.87885 11.1009 1.96163 11.0311 2.03136L7.06062 6.00036L11.0311 9.96936C11.1009 10.0391 11.1562 10.1219 11.1939 10.213C11.2316 10.3041 11.2511 10.4017 11.2511 10.5004C11.2511 10.599 11.2316 10.6966 11.1939 10.7877C11.1562 10.8788 11.1009 10.9616 11.0311 11.0314C10.9614 11.1011 10.8786 11.1564 10.7875 11.1941C10.6964 11.2319 10.5987 11.2513 10.5001 11.2513C10.4015 11.2513 10.3039 11.2319 10.2127 11.1941C10.1216 11.1564 10.0388 11.1011 9.96912 11.0314L6.00012 7.06086L2.03112 11.0314C1.96139 11.1011 1.8786 11.1564 1.7875 11.1941C1.69639 11.2319 1.59874 11.2513 1.50012 11.2513C1.4015 11.2513 1.30385 11.2319 1.21274 11.1941C1.12164 11.1564 1.03885 11.1011 0.96912 11.0314C0.899388 10.9616 0.844073 10.8788 0.806334 10.7877C0.768596 10.6966 0.749172 10.599 0.749172 10.5004C0.749172 10.4017 0.768596 10.3041 0.806334 10.213C0.844073 10.1219 0.899388 10.0391 0.96912 9.96936L4.93962 6.00036L0.96912 2.03136C0.899275 1.9617 0.84386 1.87893 0.806051 1.78781C0.768241 1.6967 0.748779 1.59901 0.748779 1.50036C0.748779 1.40171 0.768241 1.30403 0.806051 1.21291C0.84386 1.1218 0.899275 1.03903 0.96912 0.969364Z" fill="#525253"/>
</svg>
