<svg width="14" height="14" viewBox="0 0 14 14" fill="none" xmlns="http://www.w3.org/2000/svg">
    <path fill-rule="evenodd" clip-rule="evenodd"
          d="M7.00001 13.4C10.5346 13.4 13.4 10.5346 13.4 6.99998C13.4 3.46535 10.5346 0.599976 7.00001 0.599976C3.46538 0.599976 0.600006 3.46535 0.600006 6.99998C0.600006 10.5346 3.46538 13.4 7.00001 13.4ZM5.96569 4.83429C5.65327 4.52187 5.14674 4.52187 4.83432 4.83429C4.5219 5.14671 4.5219 5.65324 4.83432 5.96566L5.86863 6.99998L4.83432 8.03429C4.5219 8.34671 4.5219 8.85324 4.83432 9.16566C5.14674 9.47808 5.65327 9.47808 5.96569 9.16566L7.00001 8.13135L8.03432 9.16566C8.34674 9.47808 8.85327 9.47808 9.16569 9.16566C9.47811 8.85324 9.47811 8.34671 9.16569 8.03429L8.13138 6.99998L9.16569 5.96566C9.47811 5.65324 9.47811 5.14671 9.16569 4.83429C8.85327 4.52187 8.34674 4.52187 8.03432 4.83429L7.00001 5.8686L5.96569 4.83429Z"
          fill="#979797"/>
</svg>
